<?xml version="1.0" encoding="UTF-8" standalone="no"?>
<!-- Created with Inkscape (http://www.inkscape.org/) -->

<svg
   width="210mm"
   height="148mm"
   viewBox="0 0 210 148"
   version="1.1"
   id="svg5"
   inkscape:version="1.1.2 (0a00cf5339, 2022-02-04)"
   sodipodi:docname="logo.svg"
   xmlns:inkscape="http://www.inkscape.org/namespaces/inkscape"
   xmlns:sodipodi="http://sodipodi.sourceforge.net/DTD/sodipodi-0.dtd"
   xmlns="http://www.w3.org/2000/svg"
   xmlns:svg="http://www.w3.org/2000/svg">
  <sodipodi:namedview
     id="namedview7"
     pagecolor="#ffffff"
     bordercolor="#999999"
     borderopacity="1"
     inkscape:pageshadow="0"
     inkscape:pageopacity="0"
     inkscape:pagecheckerboard="0"
     inkscape:document-units="mm"
     showgrid="false"
     inkscape:zoom="0.85165544"
     inkscape:cx="216.63691"
     inkscape:cy="312.33288"
     inkscape:window-width="1366"
     inkscape:window-height="696"
     inkscape:window-x="0"
     inkscape:window-y="0"
     inkscape:window-maximized="1"
     inkscape:current-layer="layer1" />
  <defs
     id="defs2">
    <marker
       style="overflow:visible"
       orient="auto"
       refY="0"
       refX="0"
       id="RazorWire"
       inkscape:stockid="RazorWire"
       inkscape:isstock="true">
      <path
         d="M 0.022727273,-0.74009011 L 0.022727273,0.69740989 L -7.7585227,3.0099099 L 10.678977,3.0099099 L 3.4914773,0.69740989 L 3.4914773,-0.74009011 L 10.741477,-2.8963401 L -7.7272727,-2.8963401 L 0.022727273,-0.74009011 z "
         style="fill:#808080;fill-opacity:1;fill-rule:evenodd;stroke:context-stroke;stroke-width:0.1pt"
         transform="scale(0.8,0.8)"
         id="path24865" />
    </marker>
    <marker
       style="overflow:visible"
       id="Scissors"
       refX="0.0"
       refY="0.0"
       orient="auto"
       inkscape:stockid="Scissors"
       inkscape:isstock="true">
      <path
         style="fill:context-stroke;"
         d="M 9.0898857,-3.6061018 C 8.1198849,-4.7769976 6.3697607,-4.7358294 5.0623558,-4.2327734 L -3.1500488,-1.1548705 C -5.5383421,-2.4615840 -7.8983361,-2.0874077 -7.8983361,-2.7236578 C -7.8983361,-3.2209742 -7.4416699,-3.1119800 -7.5100293,-4.4068519 C -7.5756648,-5.6501286 -8.8736064,-6.5699315 -10.100428,-6.4884954 C -11.327699,-6.4958500 -12.599867,-5.5553341 -12.610769,-4.2584343 C -12.702194,-2.9520479 -11.603560,-1.7387447 -10.304005,-1.6532027 C -8.7816644,-1.4265411 -6.0857470,-2.3487593 -4.8210600,-0.082342643 C -5.7633447,1.6559151 -7.4350844,1.6607341 -8.9465707,1.5737277 C -10.201445,1.5014928 -11.708664,1.8611256 -12.307219,3.0945882 C -12.885586,4.2766744 -12.318421,5.9591904 -10.990470,6.3210002 C -9.6502788,6.8128279 -7.8098011,6.1912892 -7.4910978,4.6502760 C -7.2454393,3.4624530 -8.0864637,2.9043186 -7.7636052,2.4731223 C -7.5199917,2.1477623 -5.9728246,2.3362771 -3.2164999,1.0982979 L 5.6763468,4.2330688 C 6.8000164,4.5467672 8.1730685,4.5362646 9.1684433,3.4313614 L -0.051640930,-0.053722219 L 9.0898857,-3.6061018 z M -9.2179159,-5.5066058 C -7.9233569,-4.7838060 -8.0290767,-2.8230356 -9.3743431,-2.4433169 C -10.590861,-2.0196559 -12.145370,-3.2022863 -11.757521,-4.5207817 C -11.530373,-5.6026336 -10.104134,-6.0014137 -9.2179159,-5.5066058 z M -9.1616516,2.5107591 C -7.8108215,3.0096239 -8.0402087,5.2951947 -9.4138723,5.6023681 C -10.324932,5.9187072 -11.627422,5.4635705 -11.719569,4.3902287 C -11.897178,3.0851737 -10.363484,1.9060805 -9.1616516,2.5107591 z "
         id="schere" />
    </marker>
    <marker
       style="overflow:visible"
       id="EmptyDiamondSstart"
       refX="0.0"
       refY="0.0"
       orient="auto"
       inkscape:stockid="EmptyDiamondSstart"
       inkscape:isstock="true">
      <path
         transform="scale(0.2) translate(6,0)"
         style="fill-rule:evenodd;fill:context-fill;stroke:context-stroke;stroke-width:1.0pt"
         d="M 0,-7.0710768 L -7.0710894,0 L 0,7.0710589 L 7.0710462,0 L 0,-7.0710768 z "
         id="path24754" />
    </marker>
    <marker
       style="overflow:visible"
       id="EmptyDiamondL"
       refX="0.0"
       refY="0.0"
       orient="auto"
       inkscape:stockid="EmptyDiamondL"
       inkscape:isstock="true">
      <path
         transform="scale(0.8)"
         style="fill-rule:evenodd;fill:context-fill;stroke:context-stroke;stroke-width:1.0pt"
         d="M 0,-7.0710768 L -7.0710894,0 L 0,7.0710589 L 7.0710462,0 L 0,-7.0710768 z "
         id="path24739" />
    </marker>
    <marker
       style="overflow:visible"
       id="marker24951"
       refX="0.0"
       refY="0.0"
       orient="auto"
       inkscape:stockid="Arrow2Sstart"
       inkscape:isstock="true">
      <path
         transform="scale(0.3) translate(-2.3,0)"
         d="M 8.7185878,4.0337352 L -2.2072895,0.016013256 L 8.7185884,-4.0017078 C 6.9730900,-1.6296469 6.9831476,1.6157441 8.7185878,4.0337352 z "
         style="stroke:context-stroke;fill-rule:evenodd;fill:context-stroke;stroke-width:0.62500000;stroke-linejoin:round"
         id="path24949" />
    </marker>
    <marker
       style="overflow:visible"
       id="SquareL"
       refX="0.0"
       refY="0.0"
       orient="auto"
       inkscape:stockid="SquareL"
       inkscape:isstock="true">
      <path
         transform="scale(0.8)"
         style="fill-rule:evenodd;fill:context-stroke;stroke:context-stroke;stroke-width:1.0pt"
         d="M -5.0,-5.0 L -5.0,5.0 L 5.0,5.0 L 5.0,-5.0 L -5.0,-5.0 z "
         id="path24703" />
    </marker>
    <marker
       style="overflow:visible"
       id="Arrow2Sstart"
       refX="0.0"
       refY="0.0"
       orient="auto"
       inkscape:stockid="Arrow2Sstart"
       inkscape:isstock="true">
      <path
         transform="scale(0.3) translate(-2.3,0)"
         d="M 8.7185878,4.0337352 L -2.2072895,0.016013256 L 8.7185884,-4.0017078 C 6.9730900,-1.6296469 6.9831476,1.6157441 8.7185878,4.0337352 z "
         style="stroke:context-stroke;fill-rule:evenodd;fill:context-stroke;stroke-width:0.62500000;stroke-linejoin:round"
         id="path24663" />
    </marker>
    <marker
       style="overflow:visible"
       id="Arrow2Lstart"
       refX="0.0"
       refY="0.0"
       orient="auto"
       inkscape:stockid="Arrow2Lstart"
       inkscape:isstock="true">
      <path
         transform="scale(1.1) translate(1,0)"
         d="M 8.7185878,4.0337352 L -2.2072895,0.016013256 L 8.7185884,-4.0017078 C 6.9730900,-1.6296469 6.9831476,1.6157441 8.7185878,4.0337352 z "
         style="stroke:context-stroke;fill-rule:evenodd;fill:context-stroke;stroke-width:0.62500000;stroke-linejoin:round"
         id="path24651" />
    </marker>
    <marker
       style="overflow:visible"
       id="Tail"
       refX="0.0"
       refY="0.0"
       orient="auto"
       inkscape:stockid="Tail"
       inkscape:isstock="true">
      <g
         transform="scale(-1.2)"
         id="g24681">
        <path
           style="fill:none;fill-rule:evenodd;stroke:context-stroke;stroke-width:0.8;stroke-linecap:round"
           d="M -3.8048674,-3.9585227 L 0.54352094,0"
           id="path24669" />
        <path
           style="fill:none;fill-rule:evenodd;stroke:context-stroke;stroke-width:0.8;stroke-linecap:round"
           d="M -1.2866832,-3.9585227 L 3.0617053,0"
           id="path24671" />
        <path
           style="fill:none;fill-rule:evenodd;stroke:context-stroke;stroke-width:0.8;stroke-linecap:round"
           d="M 1.3053582,-3.9585227 L 5.6537466,0"
           id="path24673" />
        <path
           style="fill:none;fill-rule:evenodd;stroke:context-stroke;stroke-width:0.8;stroke-linecap:round"
           d="M -3.8048674,4.1775838 L 0.54352094,0.21974226"
           id="path24675" />
        <path
           style="fill:none;fill-rule:evenodd;stroke:context-stroke;stroke-width:0.8;stroke-linecap:round"
           d="M -1.2866832,4.1775838 L 3.0617053,0.21974226"
           id="path24677" />
        <path
           style="fill:none;fill-rule:evenodd;stroke:context-stroke;stroke-width:0.8;stroke-linecap:round"
           d="M 1.3053582,4.1775838 L 5.6537466,0.21974226"
           id="path24679" />
      </g>
    </marker>
    <inkscape:path-effect
       effect="bspline"
       id="path-effect24631"
       is_visible="true"
       lpeversion="1"
       weight="33.333333"
       steps="2"
       helper_size="0"
       apply_no_weight="true"
       apply_with_weight="true"
       only_selected="false" />
    <rect
       x="113.37348"
       y="261.6808"
       width="516.85353"
       height="216.48583"
       id="rect3488" />
  </defs>
  <g
     inkscape:label="Layer 1"
     inkscape:groupmode="layer"
     id="layer1">
    <g
       aria-label="Dictionary from da hood"
       transform="matrix(0.97362014,0,0,1.6367323,-257.20444,-361.54796)"
       id="text3486"
       style="font-size:16px;line-height:1.25;text-align:center;text-anchor:middle;white-space:pre;shape-inside:url(#rect3488)">
      <path
         d="m 289.95904,279.72589 c 0,0.048 -0.016,0.08 -0.048,0.08 0,0 0,-0.016 -0.016,-0.016 -0.032,-0.016 -0.048,-0.032 -0.048,-0.064 v -0.032 c 0.032,-0.048 0.064,-0.08 0.08,-0.08 0.016,0 0.032,0.032 0.032,0.112 z m -10.432,0.16 c 0,0.08 -0.064,0.16 -0.176,0.16 -0.144,0 -0.208,-0.048 -0.208,-0.16 0,-0.096 0.032,-0.256 0.112,-0.256 0.08,0 0.272,0.144 0.272,0.256 z m -0.4,-0.336 c 0,0.048 -0.032,0.064 -0.08,0.064 -0.048,0 -0.064,-0.016 -0.064,-0.064 0,-0.048 0.016,-0.08 0.064,-0.08 0.048,0 0.08,0.032 0.08,0.08 z m 9.68,0.016 c 0,-0.08 0.208,-0.16 0.288,-0.16 0.016,0 0.128,0.08 0.272,0.16 l 0.256,0.144 -0.224,0.08 c -0.064,0.016 -0.128,0.032 -0.192,0.032 -0.16,0 -0.4,-0.144 -0.4,-0.256 z m -9.584,-0.384 c 0,-0.208 0.272,-0.272 0.496,-0.272 0.096,0 0.144,0.032 0.176,0.096 0.032,0.064 0.176,0.256 0.32,0.4 0.192,0.192 0.256,0.272 0.256,0.32 0,0.032 -0.032,0.032 -0.096,0.032 -0.064,0 -0.096,-0.032 -0.096,-0.064 0,-0.032 -0.048,-0.032 -0.096,-0.032 h -0.08 c -0.016,0 -0.032,0.016 -0.048,0.016 -0.192,0 -0.832,-0.192 -0.832,-0.496 z m 5.536,-0.432 c 0,0.128 -0.048,0.288 -0.112,0.288 -0.032,0 -0.064,0.048 -0.064,0.112 0,0.096 -0.08,0.16 -0.176,0.16 -0.128,0 -0.256,-0.112 -0.256,-0.224 0,-0.112 0.4,-0.528 0.512,-0.528 0.064,0 0.096,0.112 0.096,0.192 z m -5.584,-3.2 c 0,0.128 -0.016,0.304 -0.048,0.56 -0.08,0.592 -0.096,0.656 -0.304,0.848 -0.128,0.112 -0.288,0.208 -0.368,0.208 l -0.016,0.016 c -0.08,0 -0.096,-0.032 -0.096,-0.208 0,-0.48 0.08,-1.136 0.208,-1.504 0.128,-0.384 0.176,-0.448 0.32,-0.448 0.192,0 0.304,0.272 0.304,0.528 z m 6.272,0.048 v 0.016 c -0.016,0.016 -0.048,0.032 -0.08,0.032 -0.224,0 -0.736,-0.4 -0.8,-0.656 0,-0.032 -0.016,-0.064 -0.016,-0.08 0,-0.032 0.016,-0.048 0.048,-0.048 0.352,0 0.848,0.624 0.848,0.736 z m -5.824,-0.464 c 0,0.128 0.048,0.256 0.096,0.272 0.032,0.016 0.048,0.032 0.048,0.048 0,0.016 -0.016,0.032 -0.032,0.048 -0.048,0.032 -0.144,0.256 -0.208,0.48 -0.064,0.224 -0.144,0.4 -0.176,0.4 -0.016,0 -0.032,-0.112 -0.032,-0.288 v -0.272 c 0,-0.128 0.016,-0.24 0.016,-0.32 0,-0.24 -0.032,-0.32 -0.128,-0.464 -0.096,-0.128 -0.144,-0.224 -0.144,-0.304 0,-0.128 0.192,-0.288 0.336,-0.288 0.192,0 0.224,0.48 0.224,0.688 z m 8.736,-1.968 c 0,0.288 -0.112,0.72 -0.24,0.848 -0.048,0.048 -0.096,0.144 -0.096,0.224 0,0.144 -0.416,0.56 -0.528,0.56 -0.032,0 -0.048,-0.032 -0.048,-0.096 0,-0.064 -0.032,-0.112 -0.064,-0.112 -0.048,0 -0.08,-0.08 -0.08,-0.176 0,-0.096 0.032,-0.176 0.08,-0.176 0.048,0 0.064,-0.048 0.064,-0.112 0,-0.08 0.432,-0.704 0.432,-0.784 0,-0.016 0.048,-0.144 0.112,-0.288 0.064,-0.16 0.144,-0.24 0.208,-0.24 0.08,0 0.16,0.192 0.16,0.352 z m -10.784,-0.768 c 0.08,0 0.192,0.272 0.192,0.352 0,0.32 0.176,0.8 0.304,0.832 0.08,0.016 0.112,0.048 0.112,0.08 0,0.032 -0.032,0.064 -0.128,0.064 -0.32,0 -0.656,-0.608 -0.656,-1.008 0,-0.112 0.048,-0.32 0.176,-0.32 z m 10.256,-1.072 c 0,0.096 -0.08,0.144 -0.176,0.144 -0.144,0 -0.352,-0.096 -0.352,-0.208 0,-0.048 -0.016,-0.144 -0.048,-0.208 v -0.048 c 0,-0.048 0.048,-0.064 0.176,-0.064 0.192,0 0.4,0.176 0.4,0.384 z m -10.432,-0.784 c 0,0.064 -0.032,0.112 -0.064,0.112 -0.032,0 -0.08,-0.048 -0.096,-0.112 0,-0.016 -0.016,-0.032 -0.016,-0.048 0,-0.032 0.032,-0.064 0.08,-0.064 0.048,0 0.096,0.048 0.096,0.112 z m 6.24,-1.824 c -0.016,0 -0.032,-0.032 -0.032,-0.08 0,-0.208 0.16,-0.944 0.432,-0.944 0.064,0 0.112,0.064 0.112,0.16 0,0.08 -0.032,0.144 -0.064,0.144 -0.08,0 -0.4,0.72 -0.448,0.72 z m 0.576,-2.16 c 0,0.032 0,0.096 0,0.192 -0.4,0 -0.848,0.016 -1.28,0.032 -0.016,-0.064 -0.048,-0.128 -0.048,-0.176 -0.096,-0.272 -0.56,-0.544 -0.752,-0.752 -0.336,-0.336 -0.432,-0.416 -0.768,-0.416 -0.112,0 -0.24,0 -0.4,0.016 -0.48,0.032 -0.688,0.08 -0.784,0.176 -0.08,0.08 -0.192,0.144 -0.272,0.144 -0.16,0 -0.624,0.448 -0.688,0.672 -0.096,0.208 -0.208,0.432 -0.496,0.432 -0.128,0 -0.4,-0.032 -0.528,-0.032 -0.144,0 -0.368,0.032 -0.368,0.08 0,0.016 0.048,0.032 0.112,0.064 0.08,0.032 0.304,0.064 0.512,0.064 0.352,0 0.384,0.032 0.384,0.176 0,0.096 0.048,0.224 0.096,0.304 0.128,0.224 0.272,0.768 0.512,0.896 0.112,0.064 0.176,0.16 0.176,0.24 0,0.064 -0.048,0.112 -0.144,0.112 -0.096,0 -0.144,0.048 -0.144,0.144 0,0.08 -0.016,0.128 -0.064,0.128 -0.016,0 -0.032,-0.016 -0.048,-0.016 -0.064,-0.016 -0.192,-0.032 -0.288,-0.032 -0.112,0 -0.144,-0.016 -0.144,-0.112 0,-0.032 0,-0.096 0.016,-0.176 0,-0.048 0.016,-0.08 0.016,-0.112 0,-0.224 -0.128,-0.368 -0.432,-0.432 -0.128,-0.032 -0.208,-0.112 -0.208,-0.176 0,-0.08 0.176,-0.096 0.176,-0.144 0,-0.016 -0.048,-0.032 -0.112,-0.032 -0.256,0 -0.368,0.08 -0.384,0.304 v 0.064 c 0,0.144 0.048,0.208 0.192,0.32 0.112,0.096 0.176,0.176 0.176,0.256 0,0.08 -0.064,0.144 -0.192,0.176 -0.112,0.032 -0.128,0.096 -0.128,0.432 0,0.528 0.192,0.768 0.576,0.768 0.224,0 0.416,-0.112 0.416,-0.208 0,-0.064 -0.128,-0.112 -0.208,-0.112 h -0.064 c -0.032,0 -0.048,0.016 -0.064,0.016 -0.16,0 -0.256,-0.144 -0.256,-0.304 0,-0.144 0.144,-0.416 0.288,-0.416 0.064,0 0.128,0.016 0.272,0.064 0.256,0.08 0.368,0.192 0.496,0.4 0.08,0.144 0.192,0.272 0.24,0.272 0.064,0 0.08,-0.016 0.08,-0.064 0,-0.064 -0.048,-0.16 -0.144,-0.272 -0.08,-0.08 -0.112,-0.128 -0.112,-0.192 0,-0.176 0.16,-0.32 0.32,-0.32 0.016,0 0.224,0.032 0.512,0.08 0.016,0.096 0.032,0.192 0.048,0.272 0.048,0.736 0.064,1.584 0.064,2.384 -0.064,0.112 -0.176,0.128 -0.208,0.128 -0.144,0 -0.432,-0.304 -0.496,-0.496 -0.032,-0.096 -0.096,-0.144 -0.128,-0.144 -0.032,0 -0.064,0.032 -0.064,0.112 0,0.064 -0.016,0.192 -0.032,0.272 0,0.016 -0.016,0.032 -0.016,0.048 0,0.192 0.24,0.48 0.416,0.48 0.08,0 0.32,-0.064 0.416,-0.064 0,0 0.048,0 0.112,-0.032 0,0.288 0,0.576 0,0.848 -0.112,-0.048 -0.224,-0.128 -0.224,-0.16 -0.016,-0.064 -0.064,-0.08 -0.096,-0.08 -0.064,0 -0.144,0.064 -0.144,0.176 0,0.144 -0.032,0.192 -0.144,0.192 -0.08,0 -0.128,0.016 -0.128,0.08 v 0.032 c 0.016,0.096 0.096,0.144 0.176,0.144 0.08,0 0.192,-0.048 0.288,-0.144 0.128,-0.128 0.192,-0.176 0.272,-0.176 0,0 0,0.016 0,0.016 0,0.176 0,0.368 0,0.528 -0.112,0.192 -0.384,0.416 -0.656,0.416 -0.08,0 -0.144,-0.032 -0.272,-0.112 -0.144,-0.08 -0.352,-0.144 -0.48,-0.144 -0.128,0 -0.288,-0.048 -0.368,-0.112 -0.064,-0.048 -0.144,-0.064 -0.192,-0.064 h -0.064 c -0.176,0 -0.416,-0.272 -0.416,-0.448 0,-0.336 0.064,-0.512 0.304,-0.624 0.16,-0.08 0.336,-0.112 0.432,-0.112 0.064,0 0.096,0.016 0.096,0.048 0,0.064 0.464,0.208 0.608,0.208 0.016,0 0.032,-0.016 0.032,-0.016 v -0.016 c 0,-0.096 -0.304,-0.368 -0.416,-0.368 -0.16,0 -0.288,-0.128 -0.288,-0.288 0,-0.144 0.112,-0.336 0.352,-0.576 0.416,-0.416 0.512,-0.56 0.512,-0.848 0,-0.144 -0.032,-0.224 -0.08,-0.224 -0.048,0 -0.08,0.064 -0.112,0.208 -0.064,0.304 -0.304,0.464 -0.704,0.464 h -0.16 c -0.224,-0.016 -0.448,-0.048 -0.496,-0.064 -0.112,-0.032 -0.672,-0.912 -0.672,-1.056 0,-0.064 -0.032,-0.128 -0.064,-0.128 -0.144,0 -0.224,-0.416 -0.224,-0.96 0,-0.352 0.048,-1.2 0.256,-1.2 0.08,0 0.176,0.144 0.272,0.144 0.064,0 0.112,-0.048 0.144,-0.144 0,-0.016 0.016,-0.048 0.016,-0.064 0,-0.144 -0.176,-0.24 -0.176,-0.4 0,-0.176 0.176,-0.384 0.528,-0.672 0.16,-0.096 0.816,-0.144 0.816,-0.336 0,-0.064 -0.08,-0.144 -0.208,-0.224 -0.144,-0.08 -0.208,-0.192 -0.208,-0.272 0,-0.064 0.048,-0.112 0.128,-0.112 0.208,-0.016 0.24,-0.032 0.576,-0.192 0.176,-0.08 0.448,-0.16 0.592,-0.192 0.144,-0.032 0.272,-0.08 0.272,-0.128 0,-0.032 0.032,-0.032 0.096,-0.032 0.048,0 0.176,0.016 0.24,0.016 0.08,0 0.112,-0.016 0.144,-0.064 0.032,-0.064 0.176,-0.112 0.32,-0.128 0.064,0 0.144,-0.016 0.224,-0.016 0.304,0 0.672,0.032 0.704,0.08 0.08,0.096 0.368,0.224 0.512,0.224 0.08,0 0.224,0.064 0.336,0.144 0.096,0.064 0.32,0.176 0.464,0.224 0.144,0.048 0.304,0.144 0.32,0.208 0.016,0.064 0.16,0.224 0.304,0.368 0.368,0.384 0.496,0.576 0.496,0.64 z m -5.984,-0.784 c 0.064,0 0.112,0.032 0.112,0.128 0,0.096 -0.096,0.192 -0.256,0.272 -0.144,0.064 -0.256,0.144 -0.256,0.176 0,0.032 -0.016,0.064 -0.064,0.064 -0.048,0 -0.08,-0.032 -0.08,-0.064 0,-0.128 0.384,-0.576 0.544,-0.576 z m 2.864,-0.048 h 0.08 c 0.08,0.016 0.208,0.048 0.304,0.048 0.096,0 0.128,0.016 0.128,0.032 0,0.032 -0.08,0.048 -0.208,0.064 -0.48,0.064 -0.8,0.224 -1.152,0.592 -0.256,0.272 -0.416,0.384 -0.56,0.384 -0.16,0 -0.224,-0.032 -0.224,-0.112 0,-0.064 0.048,-0.16 0.144,-0.32 0.208,-0.32 0.656,-0.576 1.008,-0.576 0.208,0 0.304,-0.112 0.48,-0.112 z m 8.144,-0.064 c 0,0.016 0.016,0.08 0.048,0.144 0,0.016 0.016,0.032 0.016,0.048 0,0.048 -0.048,0.064 -0.096,0.064 -0.064,0 -0.112,-0.016 -0.112,-0.032 0,-0.016 0,-0.08 -0.032,-0.144 0,-0.016 -0.016,-0.032 -0.016,-0.048 0,-0.048 0.032,-0.064 0.08,-0.064 0.064,0 0.112,0.016 0.112,0.032 z m -2.512,0.272 c 0,0.064 -0.032,0.128 -0.096,0.144 -0.032,0.016 -0.032,0.016 -0.032,0.032 0,0.08 0.192,0.24 0.192,0.272 0,0.032 -0.064,0.032 -0.176,0.032 -0.176,0 -0.288,-0.144 -0.288,-0.352 0,-0.128 0.08,-0.416 0.176,-0.416 0.096,0 0.224,0.192 0.224,0.288 z m 2.16,-0.384 c 0,0.032 -0.048,0.112 -0.112,0.176 -0.048,0.048 -0.08,0.08 -0.08,0.096 0,0.016 0.032,0.048 0.096,0.064 0.192,0.064 0.272,0.096 0.272,0.112 0,0.016 -0.032,0.032 -0.096,0.048 h -0.048 c -0.112,0 -0.224,-0.08 -0.4,-0.272 l -0.272,-0.288 h 0.32 c 0.176,0 0.32,0.032 0.32,0.064 z m -11.504,-0.128 c 0.048,0 0.096,0.032 0.096,0.096 0,0.064 -0.08,0.112 -0.192,0.112 -0.096,0 -0.128,0 -0.128,-0.032 0,-0.08 0.176,-0.176 0.224,-0.176 z m 13.792,7.024 c -0.016,0.016 -0.032,0.032 -0.032,0.032 0,-0.128 0.016,-0.272 0.016,-0.416 0,-1.84 -0.976,-3.296 -2.288,-4.224 0.16,-0.08 0.272,-0.144 0.32,-0.16 0.08,0 0.656,-0.16 0.736,-0.16 0.352,0.064 0.608,0.24 0.608,0.4 0,0.112 -0.048,0.16 -0.128,0.16 -0.112,0 -0.304,-0.208 -0.384,-0.208 -0.064,0 -0.128,0.08 -0.128,0.112 0,0.016 0.016,0.016 0.032,0.016 0.048,0 0.144,0.128 0.24,0.288 0.16,0.288 0.512,0.512 0.736,0.512 0.208,0 0.304,-0.224 0.304,-0.4 0,-0.112 -0.032,-0.224 -0.112,-0.304 -0.08,-0.096 -0.128,-0.16 -0.128,-0.192 0,-0.016 0.016,-0.032 0.032,-0.032 0.08,0 0.528,0.432 0.528,0.496 0,0.08 0.208,0.24 0.208,0.352 0,0.016 -0.016,0.032 -0.016,0.048 -0.016,0.064 -0.032,0.176 -0.032,0.288 0,0.208 -0.304,0.416 -0.544,0.416 -0.016,0 -0.048,-0.016 -0.064,-0.016 -0.08,-0.032 -0.112,-0.064 -0.112,-0.096 0,-0.032 0.048,-0.064 0.112,-0.096 0.064,-0.016 0.096,-0.112 0.096,-0.192 0,-0.096 0,-0.128 -0.048,-0.128 -0.16,0 -0.384,0.192 -0.384,0.336 0,0.048 0.016,0.08 0.064,0.08 0.128,0 0.432,0.544 0.432,0.768 0,0.4 0.016,0.32 0.464,0.336 0.064,0 0.128,0.016 0.176,0.016 0.192,0 0.368,-0.048 0.368,-0.192 0,-0.096 -0.272,-0.208 -0.368,-0.208 -0.064,0 -0.128,-0.048 -0.128,-0.08 0,-0.032 -0.048,-0.064 -0.112,-0.064 -0.064,0 -0.096,-0.048 -0.096,-0.08 0,-0.032 0.032,-0.064 0.096,-0.064 0.064,0 0.112,-0.048 0.112,-0.08 0,-0.032 0.064,-0.128 0.144,-0.208 0.08,-0.08 0.144,-0.208 0.144,-0.288 0,-0.144 0.128,-0.288 0.128,-0.448 0,-0.224 -0.128,-0.56 -0.288,-0.64 -0.048,-0.032 -0.08,-0.064 -0.08,-0.08 0,-0.032 0.048,-0.048 0.16,-0.128 0.144,-0.08 0.192,-0.128 0.192,-0.208 0,-0.096 -0.048,-0.24 -0.048,-0.352 v -0.016 c 0,-0.112 -0.272,-0.208 -0.528,-0.208 -0.224,0 -0.464,0.096 -0.464,0.288 0,0.064 0.032,0.144 0.096,0.208 0.032,0.032 0.032,0.048 0.032,0.064 0,0.016 -0.016,0.016 -0.032,0.016 -0.032,0 -0.064,-0.016 -0.128,-0.032 -0.176,-0.048 -0.768,-0.08 -0.864,-0.192 -0.112,-0.08 -0.272,-0.192 -0.336,-0.192 -0.016,0 -0.032,0 -0.032,0.016 -0.016,0.016 -0.336,0.064 -0.528,0.096 -0.176,0.048 -0.416,0.144 -0.672,0.288 -0.32,-0.208 -0.672,-0.4 -1.024,-0.528 l 0.176,-0.416 c 0.016,-0.064 0,-0.24 0,-0.432 0,-0.256 0.08,-0.4 0.176,-0.4 0.08,0 0.256,0.208 0.336,0.208 0.032,0 0.08,0.096 0.112,0.224 0.096,0.448 0.272,0.688 0.512,0.688 0.16,0 0.336,-0.08 0.336,-0.224 0,-0.032 -0.016,-0.048 -0.016,-0.096 v -0.08 c 0,-0.112 0.048,-0.192 0.096,-0.192 0.032,0 0.064,0.032 0.08,0.096 0.08,0.208 0.32,0.448 0.464,0.448 0.064,0 0.144,0.032 0.176,0.064 0.032,0.048 0.144,0.08 0.272,0.08 0.16,0 0.352,-0.032 0.448,-0.096 0.624,-0.368 0.688,-0.448 0.784,-0.976 0.016,-0.064 0.016,-0.128 0.016,-0.192 0,-0.512 -0.384,-0.96 -0.848,-0.96 -0.16,0 -0.288,0.032 -0.288,0.08 0,0.096 -0.24,0.24 -0.24,0.336 0,0.048 0.032,0.144 0.096,0.288 0.112,0.24 0.176,0.304 0.32,0.304 0.112,0 0.192,-0.048 0.192,-0.112 0,-0.064 0.016,-0.096 0.064,-0.096 0.112,0 0.32,0.24 0.32,0.4 v 0.048 c -0.096,0.368 -0.192,0.544 -0.32,0.544 -0.064,0 -0.144,0.032 -0.176,0.064 -0.032,0.048 -0.064,0.08 -0.128,0.08 -0.112,0 -0.288,-0.096 -0.48,-0.272 -0.192,-0.176 -0.272,-0.272 -0.272,-0.32 0,-0.032 0.032,-0.048 0.08,-0.048 0.016,0 0.032,0.016 0.064,0.016 h 0.064 c 0.08,0 0.096,-0.032 0.096,-0.176 0,-0.032 -0.016,-0.08 -0.016,-0.128 0,-0.176 -0.032,-0.336 -0.08,-0.352 -0.048,-0.016 -0.08,-0.064 -0.08,-0.128 0,-0.048 -0.128,-0.176 -0.304,-0.256 -0.176,-0.096 -0.304,-0.128 -0.512,-0.128 -0.112,0 -0.24,0.016 -0.432,0.032 -0.592,0.048 -0.624,0.064 -0.8,0.304 -0.128,0.16 -0.24,0.224 -0.336,0.224 -0.08,0 -0.16,-0.048 -0.208,-0.16 -0.032,-0.096 -0.08,-0.192 -0.112,-0.192 -0.032,0 -0.72,-0.064 -0.88,-0.064 -0.112,0 -0.128,0.016 -0.128,0.048 v 0.048 c 0.016,0.032 0.016,0.064 0.016,0.096 0,0.16 -0.096,0.384 -0.176,0.384 -0.032,0 -0.08,-0.16 -0.112,-0.336 -0.064,-0.384 -0.208,-0.48 -0.624,-0.48 -0.496,0 -0.912,0.096 -0.912,0.592 0,0.448 0.208,0.72 0.544,0.72 0.16,0 0.24,-0.032 0.24,-0.08 0,-0.064 -0.208,-0.096 -0.208,-0.192 0,-0.032 0.224,-0.4 0.336,-0.4 0.016,0 0.016,0 0.016,0.016 0,0.048 0.048,0.08 0.096,0.08 0.128,0 0.4,0.272 0.4,0.384 0,0.16 0.32,0.416 0.496,0.416 0.08,0 0.16,0.032 0.16,0.064 0,0.048 0.048,0.08 0.096,0.08 0.192,0 0.368,-0.16 0.368,-0.416 0,-0.144 -0.048,-0.304 -0.144,-0.384 -0.064,-0.048 -0.096,-0.112 -0.096,-0.144 0,-0.048 0.048,-0.064 0.144,-0.064 0.08,0 0.288,0.128 0.432,0.272 0.24,0.24 0.272,0.336 0.272,0.576 0,0.096 -0.112,0.32 -0.272,0.56 -0.624,-0.208 -1.28,-0.336 -1.888,-0.336 -0.032,0 -0.464,0.016 -1.024,0.032 -0.384,-0.704 -0.736,-1.456 -1.184,-1.68 -0.176,-0.08 -0.368,-0.208 -0.416,-0.256 -0.176,-0.192 -0.72,-0.272 -1.568,-0.272 -0.48,0 -2.112,0.064 -2.112,0.224 0,0.032 -0.176,0.128 -0.384,0.224 -0.208,0.096 -0.464,0.272 -0.576,0.384 -0.112,0.112 -0.192,0.192 -0.208,0.192 -0.016,-0.016 -0.064,-0.112 -0.096,-0.24 -0.064,-0.192 -0.288,-0.304 -0.512,-0.304 -0.32,0 -0.64,0.192 -0.64,0.528 0,0.176 0.096,0.304 0.24,0.304 0.064,0 0.096,0.032 0.096,0.064 0,0.064 -0.192,0.128 -0.192,0.16 0,0.128 0.368,0.352 0.48,0.352 0.08,0 0.144,0.032 0.144,0.08 0,0.112 -0.336,0.224 -0.624,0.224 h -0.032 c -0.016,0 -0.048,-0.016 -0.064,-0.016 -0.288,0 -0.432,0.08 -0.432,0.192 0,0.064 0.032,0.096 0.064,0.096 0.032,0 0.08,0.064 0.112,0.144 0.032,0.08 0.144,0.144 0.304,0.176 0.16,0.032 0.208,0.064 0.208,0.128 0,0.128 -0.112,0.304 -0.192,0.384 -0.16,0.176 -0.256,0.688 -0.256,1.136 0,0.304 0.048,0.56 0.144,0.672 0.032,0.032 0.032,0.08 0.032,0.128 0,0.016 -0.016,0.048 -0.016,0.064 v 0.016 c 0,0.128 0.464,0.416 0.464,0.48 h -0.016 c -0.032,0 -0.112,-0.032 -0.208,-0.096 l -0.224,-0.16 0.064,0.304 c 0.032,0.176 0.064,0.368 0.112,0.416 0.144,0.176 0.528,0.304 1.008,0.336 0.272,0.016 0.512,0.048 0.528,0.064 v 0.016 c 0,0.064 -0.112,0.24 -0.112,0.304 0,0.048 0.016,0.08 0.048,0.144 0.064,0.096 0.08,0.176 0.08,0.24 0,0.08 -0.048,0.128 -0.128,0.128 -0.064,0 -0.16,0.032 -0.208,0.08 -0.032,0.032 -0.048,0.048 -0.08,0.048 -0.048,0 -0.096,-0.032 -0.176,-0.112 -0.096,-0.096 -0.144,-0.128 -0.24,-0.128 -0.064,0 -0.144,0.016 -0.256,0.048 -0.416,0.096 -0.56,0.368 -0.56,1.008 0,0.72 0.096,0.8 1.296,0.896 0.304,0.016 0.496,0.064 0.56,0.144 0.048,0.048 0.064,0.08 0.112,0.08 0.032,0 0.272,-0.128 0.32,-0.128 0.064,0 0.144,0.16 0.144,0.224 0,0.144 -0.464,0.384 -0.592,0.384 h -0.032 c -0.032,-0.016 -0.048,-0.016 -0.08,-0.016 -0.064,0 -0.096,0.048 -0.096,0.112 0,0.096 0.064,0.224 0.064,0.32 0,0.096 -0.048,0.192 -0.112,0.352 -0.176,0.4 -0.224,0.656 -0.224,1.248 v 0.512 c 0,0.288 -0.032,0.368 -0.16,0.368 -0.448,0 -0.656,-0.224 -0.656,-0.72 0,-0.064 -0.016,-0.256 0.048,-0.32 0.016,0 0.048,0.064 0.096,0.144 0.048,0.096 0.128,0.16 0.176,0.16 0.048,-0.048 0.08,-0.08 0.08,-0.208 0,-0.16 -0.064,-0.304 -0.192,-0.304 -0.256,0 -0.8,0.304 -0.8,0.608 0,0.064 0.032,0.128 0.064,0.256 0.08,0.288 0.096,0.32 0.32,0.32 0.144,0 0.288,0.032 0.288,0.096 0,0.08 -0.176,0.224 -0.352,0.288 -0.08,0.048 -0.288,0.288 -0.288,0.432 0,0.032 0.016,0.048 0.032,0.048 0.016,0 0.144,-0.144 0.208,-0.144 0.032,0 0.096,0.128 0.144,0.128 0.016,0 0.032,-0.016 0.048,-0.048 0.016,-0.064 0.096,-0.08 0.144,-0.08 0.048,0 0.096,0.032 0.096,0.08 0,0.032 0.032,0.064 0.096,0.064 0.064,0 0.112,-0.048 0.112,-0.112 0,-0.096 0.128,-0.32 0.272,-0.528 0.016,-0.016 0.016,-0.016 0.032,-0.016 0.096,0 0.288,0.416 0.288,0.656 0,0.016 -0.016,0.048 -0.016,0.064 0,0.128 0.288,0.576 0.368,0.576 0.048,0 0.08,0.032 0.08,0.096 0,0.224 -0.32,0.608 -0.56,0.608 -0.128,0 -0.32,-0.064 -0.4,-0.064 -0.064,0 -0.128,-0.048 -0.128,-0.096 0,-0.048 -0.128,-0.224 -0.192,-0.224 -0.016,0 -0.032,0 -0.032,0.048 0,0.032 0,0.048 -0.016,0.048 -0.048,0 -0.112,-0.16 -0.112,-0.208 0,-0.016 0.016,-0.048 0.016,-0.048 h 0.016 c 0.016,0 0.032,0.032 0.032,0.064 0,0.032 0,0.048 0.016,0.048 0.016,0 0.144,-0.096 0.176,-0.096 0.016,0 0.016,0.016 0.016,0.08 0,0.064 0.032,0.096 0.096,0.096 0.24,0 0.48,-0.112 0.48,-0.224 0,-0.16 -0.432,-0.432 -0.56,-0.432 -0.016,0 -0.016,0 -0.016,0.016 0,0.032 -0.128,0.128 -0.288,0.192 -0.224,0.096 -0.288,0.16 -0.288,0.288 0,0.096 -0.032,0.256 -0.08,0.336 -0.032,0.048 -0.032,0.08 -0.032,0.112 0,0.048 0.032,0.096 0.112,0.16 0.08,0.064 0.144,0.176 0.144,0.24 0,0.16 0.32,0.288 0.416,0.384 0.032,0.048 0.048,0.08 0.08,0.08 0.032,0 0.064,-0.032 0.128,-0.096 0.064,-0.064 0.144,-0.096 0.208,-0.096 h 0.048 c 0.016,0 0,0.016 0.016,0.016 0.16,0 0.48,-0.272 0.48,-0.432 0,-0.064 0.032,-0.096 0.064,-0.096 0.048,0 0.064,0.048 0.064,0.128 0,0.08 0.096,0.24 0.208,0.336 0.144,0.128 0.208,0.16 0.416,0.16 h 0.224 c 0.272,-0.016 0.48,-0.064 0.512,-0.112 0.032,-0.032 0.064,-0.064 0.128,-0.064 0.032,0 0.064,0 0.096,0.016 0.08,0.032 0.416,0.048 0.752,0.048 h 0.032 c 0.56,0 0.8,-0.064 0.8,-0.24 0,-0.048 0.064,-0.16 0.144,-0.256 0.096,-0.128 0.144,-0.32 0.144,-0.512 0,-0.272 -0.096,-0.512 -0.256,-0.512 -0.144,0 -0.24,-0.176 -0.368,-0.176 -0.288,0 -0.512,0.224 -0.512,0.352 0,0.16 0.128,0.336 0.256,0.336 0.08,0 0.16,-0.08 0.192,-0.224 0.032,-0.128 0.064,-0.176 0.112,-0.176 h 0.032 c 0.096,0.032 0.16,0.144 0.16,0.272 0,0.368 -0.304,0.496 -0.72,0.496 -0.336,0 -0.576,-0.176 -0.688,-0.48 -0.048,-0.112 -0.128,-0.192 -0.192,-0.192 -0.064,0 -0.096,-0.032 -0.096,-0.064 0,-0.048 -0.176,-0.08 -0.368,-0.08 -0.224,0 -0.48,0.048 -0.608,0.096 -0.064,0.032 -0.112,0.048 -0.144,0.048 -0.208,0 -0.4,-0.48 -0.4,-0.624 0,-0.032 0,-0.048 0.016,-0.064 0.208,-0.208 2.096,-0.112 2.768,-0.112 0.832,0 2.192,0.016 3.472,0.032 -0.016,0.032 -0.032,0.048 -0.032,0.064 -0.096,0.144 -0.384,0.368 -0.768,0.368 -0.256,0 -0.352,0.032 -0.368,0.128 -0.048,0.16 -0.496,0.176 -0.496,0.368 0,0.064 0.048,0.128 0.176,0.128 0.144,0 0.192,-0.048 0.24,-0.144 0,0 0.016,0.032 0.016,0.064 0,0.048 -0.064,0.192 -0.144,0.32 -0.096,0.16 -0.128,0.32 -0.128,0.448 0,0.272 0.16,0.464 0.384,0.464 0.176,0 0.464,-0.176 0.464,-0.368 0,-0.08 0.032,-0.128 0.08,-0.128 0.032,0 0.064,0.064 0.064,0.144 0,0.176 0.224,0.272 0.432,0.272 0.272,0 0.368,-0.192 0.368,-0.464 0,-0.096 -0.016,-0.144 0.016,-0.144 0.08,0 0.272,0.24 0.272,0.288 0,0.096 0.448,0.336 0.64,0.336 0.064,0 0.144,0.048 0.16,0.112 0.016,0.064 0.016,0.096 0.032,0.096 0.016,0 0.048,-0.032 0.112,-0.096 0.064,-0.064 0.208,-0.112 0.336,-0.112 0.24,0 0.4,-0.048 0.4,-0.128 0,-0.016 -0.016,-0.032 -0.016,-0.032 v -0.048 c 0,-0.048 0.016,-0.144 0.048,-0.24 0.032,-0.08 0.064,-0.128 0.064,-0.176 0,-0.144 -0.24,-0.304 -0.352,-0.304 -0.096,0 -0.16,0.064 -0.16,0.192 v 0.08 c 0,0.112 -0.032,0.144 -0.112,0.144 -0.16,0 -0.32,-0.352 -0.32,-0.64 v -0.096 c 0.016,-0.064 0.016,-0.128 0.016,-0.16 0,-0.112 -0.096,-0.192 -0.24,-0.192 -0.192,0 -0.48,0.112 -0.48,0.208 0,0.064 -0.144,0.288 -0.208,0.288 -0.032,0 -0.064,-0.032 -0.096,-0.064 -0.096,-0.096 -0.144,-0.368 -0.096,-0.608 0.016,-0.112 0.064,-0.24 0.112,-0.352 0.192,0 0.4,0 0.592,0 0.224,0 0.448,0 0.672,-0.032 0.08,0.16 0.144,0.288 0.16,0.352 0.016,0.048 0.112,0.208 0.24,0.352 0.128,0.144 0.24,0.352 0.288,0.464 0.048,0.112 0.112,0.192 0.144,0.192 0.032,0 0.16,0.112 0.304,0.24 0.144,0.128 0.304,0.288 0.4,0.352 0.16,0.112 0.576,0.192 0.96,0.192 0.304,0 0.544,-0.112 0.832,-0.112 0.16,0 0.368,0.08 0.512,0.08 0.08,0 0.128,-0.032 0.16,-0.064 0.048,-0.048 0.176,-0.112 0.24,-0.128 0.176,-0.032 0.432,-0.512 0.56,-0.64 0.064,-0.064 0.112,-0.128 0.112,-0.16 0,-0.032 0.064,-0.112 0.144,-0.192 0.08,-0.08 0.144,-0.224 0.144,-0.304 0,-0.144 0.176,-0.4 0.176,-0.592 0,-0.096 -0.096,-0.304 -0.096,-0.384 0,-0.032 0,-0.048 0.016,-0.048 0.032,0 0.208,0.144 0.224,0.144 0.064,0 0.112,-0.304 0.112,-0.384 0,-0.128 -0.128,-0.48 -0.272,-0.48 -0.016,0 -0.016,0 -0.016,0.016 0,0.064 -0.016,0.112 -0.032,0.112 -0.112,0 -0.176,-0.592 -0.256,-0.592 -0.08,0 -0.16,-0.656 -0.176,-0.72 0,-0.016 -0.016,-0.032 -0.016,-0.048 0,-0.032 0.048,-0.048 0.144,-0.048 0.08,0 0.368,0.032 0.464,0.032 0.192,0 0.256,-0.112 0.256,-0.32 0,-0.176 -0.08,-0.4 -0.176,-0.4 -0.064,0 -0.16,-0.272 -0.192,-0.272 -0.016,0 -0.016,0.032 -0.016,0.096 0,0.064 0,0.096 -0.016,0.096 -0.096,0 -0.16,-0.144 -0.16,-0.272 0,-0.096 0.032,-0.336 0.08,-0.336 0.016,0 0.048,0.032 0.096,0.096 0.144,0.176 0.352,0.288 0.48,0.288 0.064,0 0.096,-0.016 0.096,-0.08 0,-0.064 -0.016,-0.112 -0.048,-0.112 -0.016,0 -0.048,-0.08 -0.048,-0.208 0,-0.048 0.016,-0.112 0.016,-0.16 l 0.016,-0.352 h -0.208 c -0.32,0 -0.656,0.176 -0.656,0.368 0,0.08 -0.048,0.192 -0.112,0.24 -0.112,0.08 -0.224,0.88 -0.224,1.424 0,0.192 0.016,0.336 0.048,0.416 0.048,0.144 0.064,0.224 0.064,0.272 0,0.032 -0.016,0.048 -0.032,0.048 -0.016,0 -0.048,0 -0.096,-0.032 -0.08,-0.048 -0.256,-0.08 -0.384,-0.08 -0.304,0 -0.976,0.4 -1.024,0.608 -0.032,0.096 -0.144,0.176 -0.304,0.24 -0.16,0.064 -0.24,0.144 -0.24,0.224 0,0.096 0.08,0.192 0.256,0.272 0.112,0.048 0.192,0.08 0.24,0.08 0.032,0 0.048,-0.016 0.064,-0.048 0.016,-0.064 0.064,-0.08 0.112,-0.08 0.064,0 0.144,0.048 0.224,0.144 0.08,0.096 0.16,0.128 0.24,0.128 0.08,0 0.176,-0.032 0.336,-0.112 0.192,-0.096 0.24,-0.128 0.24,-0.288 v -0.128 c -0.016,-0.272 -0.032,-0.288 -0.256,-0.304 -0.032,0 -0.064,-0.016 -0.096,-0.016 -0.112,0 -0.144,0.048 -0.144,0.128 0,0.064 0.048,0.16 0.096,0.208 0.032,0.032 0.048,0.048 0.048,0.08 0,0.08 -0.224,0.208 -0.272,0.208 -0.112,0 -0.272,-0.4 -0.272,-0.576 0,-0.304 0.288,-0.352 0.464,-0.528 0.064,-0.064 0.128,-0.08 0.208,-0.08 0.368,0 0.736,0.496 0.736,1.04 0,0.416 -0.24,1.376 -0.704,1.376 -0.272,0 -0.224,0.128 -0.464,0.128 h -0.112 c -0.352,-0.048 -1.008,-0.272 -1.008,-0.352 0,-0.032 0.112,-0.096 0.24,-0.16 0.256,-0.128 0.432,-0.352 0.432,-0.496 0,-0.064 -0.064,-0.112 -0.096,-0.112 -0.032,0 -0.048,0.016 -0.08,0.08 -0.048,0.08 -0.128,0.128 -0.24,0.128 -0.128,0 -0.288,-0.048 -0.448,-0.144 -0.128,-0.064 -0.208,-0.112 -0.304,-0.112 -0.128,0 -0.256,0.048 -0.496,0.16 -0.192,0.096 -0.24,0.16 -0.24,0.368 0,0.176 0.016,0.224 0.096,0.224 0.032,0 0.064,0 0.112,-0.016 0.032,0 0.08,-0.016 0.112,-0.016 0.176,0 0.256,0.112 0.256,0.336 0,0.224 -0.224,0.416 -0.48,0.416 -0.192,0 -0.784,-0.784 -1.152,-1.408 2.816,-0.464 4.256,-2.864 4.4,-5.568 0.096,-0.064 0.32,-0.224 0.512,-0.224 0.048,0 0.08,0.032 0.08,0.096 0,0.08 -0.096,0.24 -0.096,0.304 0,0.112 0.096,0.176 0.288,0.176 h 0.016 c 0.224,0 0.304,-0.048 0.304,-0.352 0,-0.112 -0.016,-0.256 -0.032,-0.432 -0.048,-0.432 -0.048,-0.512 -0.16,-0.512 h -0.08 c -0.096,0.016 -0.224,0.096 -0.272,0.16 -0.256,0.352 -0.624,0.736 -0.528,0.736 z m -14.4,2.304 v 0.048 c 0.016,0.144 0.032,0.176 0.208,0.176 h 0.192 c 0.16,0 0.224,0.032 0.224,0.08 0,0.128 -0.24,0.336 -0.384,0.336 -0.08,0 -0.112,0.08 -0.112,0.176 0,0.304 0.368,0.384 0.72,0.384 0.144,0 0.368,-0.128 0.368,-0.256 0,-0.032 -0.112,-0.128 -0.144,-0.128 -0.016,0 -0.016,0.016 -0.016,0.032 0,0.048 -0.016,0.064 -0.048,0.064 -0.08,0 -0.24,-0.32 -0.24,-0.384 0,-0.048 0.368,-0.4 0.416,-0.4 0.064,0 0.384,-0.256 0.384,-0.304 0,-0.016 -0.032,-0.016 -0.096,-0.016 -0.128,0 -0.304,0.032 -0.4,0.032 -0.128,0 -0.176,-0.048 -0.24,-0.144 -0.08,-0.128 -0.24,-0.176 -0.384,-0.176 -0.272,0 -0.448,0.208 -0.448,0.48 z m 7.088,-3.6 c 0,0.128 0.112,0.208 0.288,0.208 0.176,0 0.272,-0.064 0.272,-0.16 0,-0.128 -0.224,-0.256 -0.352,-0.256 -0.144,0 -0.208,0.08 -0.208,0.208 z m 1.952,0.8 c 0,0.064 0.064,0.112 0.128,0.112 0.064,0 0.144,-0.064 0.144,-0.16 0,-0.096 -0.048,-0.128 -0.096,-0.128 -0.08,0 -0.176,0.112 -0.176,0.176 z m -3.216,-5.168 c -0.688,0.032 -1.216,0.032 -1.216,0.032 -0.16,0.016 -0.336,-0.064 -0.496,-0.064 -0.144,0 -0.224,0.048 -0.32,0.048 -0.08,0 -0.128,-0.048 -0.128,-0.112 0,-0.048 0.032,-0.112 0.064,-0.192 0.112,-0.256 0.592,-0.4 1.056,-0.4 0.368,0 0.976,0.112 0.976,0.464 0,0.064 0.032,0.16 0.064,0.224 z m 4.352,0.752 c -0.048,0.064 -0.096,0.128 -0.144,0.176 -0.144,0.16 -0.288,0.176 -0.464,0.176 -0.064,0 -0.128,-0.016 -0.144,-0.032 -0.048,-0.048 -0.208,-0.08 -0.352,-0.08 -0.144,0 -0.272,0.016 -0.272,0.064 0,0.032 0.096,0.128 0.208,0.192 0.288,0.192 0.368,0.336 0.368,0.608 0,0.544 -0.64,1.072 -1.312,1.072 -0.224,0 -0.336,-0.032 -0.336,-0.112 0,-0.096 0.256,-0.256 0.256,-0.416 0,-0.016 -0.016,-0.032 -0.016,-0.064 -0.064,-0.192 -0.128,-0.304 -0.208,-0.304 -0.08,0 -0.16,0.096 -0.24,0.256 -0.08,0.176 -0.128,0.208 -0.304,0.208 -0.144,0 -0.192,0.016 -0.192,0.08 0,0.064 0.032,0.16 0.032,0.224 0,0.08 -0.032,0.144 -0.112,0.224 -0.08,0.08 -0.128,0.208 -0.128,0.304 0,0.08 0.016,0.128 0.08,0.128 h 0.032 c 0.128,0 0.64,0.272 0.752,0.272 0.064,0 0.304,0.192 0.304,0.272 0,0.016 0,0.016 -0.016,0.016 h -0.016 c 0,0.016 0,0.032 0.032,0.048 0.064,0.048 0.16,0.272 0.16,0.432 0,0.16 -0.192,0.144 -0.192,0.272 0,0.128 -0.368,0.32 -0.608,0.32 -0.352,0 -0.656,-0.288 -0.656,-0.592 0,-0.128 0.096,-0.288 0.096,-0.416 0,-0.256 -0.272,-0.288 -0.528,-0.288 -0.256,0 -0.528,0.048 -0.56,0.112 -0.016,0.032 -0.08,0.064 -0.144,0.064 -0.016,0 -0.112,0.048 -0.24,0.08 -0.016,-0.544 -0.016,-1.072 -0.032,-1.488 0.24,0.032 0.416,0.048 0.448,0.048 0.08,0 0.272,-0.08 0.336,-0.08 h 0.016 l 0.016,0.016 c 0.032,0 0.128,-0.032 0.224,-0.08 0.096,-0.048 0.224,-0.064 0.336,-0.064 0.032,0 0.064,0.016 0.096,0.016 0.048,0.016 0.064,0 0.096,0 0.08,0 0.096,-0.032 0.096,-0.16 0,-0.128 0.08,-0.288 0.256,-0.448 0.144,-0.128 0.288,-0.32 0.32,-0.416 0.048,-0.112 0.112,-0.176 0.192,-0.176 0.048,0 0.096,0.016 0.112,0.08 0.016,0.032 0.016,0.048 0.064,0.048 0.208,0 0.368,-0.112 0.4,-0.288 v -0.064 c 0,-0.096 -0.048,-0.128 -0.224,-0.16 -0.144,-0.032 -0.256,-0.144 -0.352,-0.256 -0.064,-0.048 -0.016,-0.176 0,-0.304 0.128,0 0.208,-0.016 0.224,-0.016 0.912,0 1.648,0.192 2.24,0.496 z m 0.32,0.192 c 0.24,0.144 0.464,0.32 0.656,0.528 -0.32,0.304 -0.592,0.624 -0.624,0.736 -0.112,0.336 -0.24,0.48 -0.24,0.848 v 0.208 c 0,0.064 0.016,0.128 0.016,0.176 0,0.176 -0.032,0.256 -0.112,0.256 -0.048,0 -0.112,-0.016 -0.192,-0.096 -0.096,-0.08 -0.272,-0.16 -0.432,-0.176 -0.384,-0.032 -0.224,-0.128 -0.624,-0.128 -0.4,0 -1.28,0.208 -1.504,0.208 -0.048,0 -0.064,-0.016 -0.064,-0.032 0,-0.096 0.24,-0.464 0.304,-0.464 0.032,0 0.112,0.048 0.176,0.112 0.064,0.064 0.112,0.08 0.208,0.08 0.048,0 0.096,0 0.16,-0.016 0.56,-0.112 1.008,-0.304 1.36,-0.848 0.096,-0.144 0.128,-0.24 0.128,-0.368 0,-0.112 -0.016,-0.24 -0.08,-0.448 -0.016,-0.032 -0.016,-0.048 -0.016,-0.064 0,-0.064 0.048,-0.096 0.208,-0.128 0.128,-0.032 0.32,-0.112 0.416,-0.192 0.032,-0.032 0.16,-0.112 0.256,-0.192 z m 0.784,0.656 c 1.024,1.184 1.296,2.912 1.296,4.336 0,2.304 -0.736,4.032 -2.896,4.736 0,-0.016 0,-0.032 0,-0.048 0,-0.096 0.128,-0.288 0.24,-0.592 0.288,-0.768 0.64,-1.056 1.6,-1.328 0.048,-0.016 0.064,-0.032 0.064,-0.064 0,-0.048 -0.096,-0.112 -0.208,-0.112 -0.16,0 -0.416,-0.192 -0.416,-0.32 0,-0.048 0.112,-0.208 0.256,-0.352 0.352,-0.368 0.512,-0.8 0.528,-1.552 v -0.208 c 0,-0.336 -0.048,-0.512 -0.128,-0.72 -0.064,-0.16 -0.096,-0.304 -0.096,-0.4 0,-0.112 0.048,-0.176 0.128,-0.176 0.064,0 0.096,-0.064 0.096,-0.144 0,-0.144 -0.08,-0.256 -0.256,-0.256 -0.032,0 -0.048,0.016 -0.08,0.016 h -0.048 c -0.096,0 -0.176,-0.064 -0.176,-0.112 0,-0.032 0,-0.048 0.048,-0.064 0.16,-0.048 0.448,-0.416 0.448,-0.576 0,-0.128 -0.08,-0.208 -0.16,-0.208 -0.096,0 -0.208,0.176 -0.272,0.176 -0.08,0 -0.176,-0.096 -0.272,-0.096 -0.112,0 -0.224,0.048 -0.224,0.144 0,0.096 -0.064,0.16 -0.144,0.16 -0.128,0 -0.176,-0.096 -0.176,-0.256 0,-0.24 0.144,-0.608 0.32,-0.688 0.128,-0.048 0.192,-0.112 0.192,-0.16 0,-0.048 -0.064,-0.096 -0.192,-0.096 -0.144,0 -0.224,-0.016 -0.224,-0.08 0,-0.032 0.048,-0.096 0.112,-0.16 0.064,-0.064 0.112,-0.16 0.112,-0.224 0,-0.112 0.272,-0.368 0.528,-0.576 z m -1.84,9.136 c -0.256,0.08 -0.544,0.144 -0.864,0.192 0,0 0.016,0 0.016,-0.016 0,-0.144 0.16,-0.464 0.256,-0.544 0.16,-0.112 0.176,-1.248 0.368,-1.248 0.016,0 0.032,0.016 0.048,0.016 0.016,0.016 0.048,0 0.064,0 0.096,0 0.192,-0.064 0.192,-0.144 0,-0.016 -0.016,-0.032 -0.016,-0.048 -0.016,-0.048 -0.064,-0.08 -0.128,-0.08 h -0.064 c -0.016,0 -0.016,0.016 -0.032,0.016 -0.176,0 -0.544,-0.272 -0.544,-0.4 0,-0.112 -0.432,-0.448 -0.64,-0.496 -0.224,-0.048 -0.304,-0.096 -0.304,-0.24 0,-0.544 0.352,-0.896 0.832,-0.896 h 0.032 c 0.256,0 0.336,0.048 0.48,0.224 0.112,0.128 0.176,0.272 0.176,0.384 0,0.224 -0.208,0.352 -0.416,0.352 -0.08,0 -0.272,-0.032 -0.272,-0.112 0,-0.048 0.144,-0.16 0.144,-0.224 0,-0.048 -0.048,-0.096 -0.144,-0.096 -0.096,0 -0.128,0.064 -0.128,0.16 0,0.224 0.288,0.56 0.512,0.56 0.336,0 0.848,-0.192 0.848,-0.304 0,-0.016 -0.144,-0.048 -0.144,-0.08 0,-0.032 0.064,-0.08 0.176,-0.176 0.144,-0.128 0.192,-0.176 0.192,-0.304 0,-0.112 -0.08,-0.608 -0.112,-0.608 -0.016,0 -0.032,0.048 -0.064,0.112 -0.064,0.16 -0.128,0.24 -0.16,0.24 -0.048,0 -0.08,-0.096 -0.08,-0.304 0,-0.208 -0.048,-0.448 -0.112,-0.56 -0.08,-0.112 -0.128,-0.16 -0.176,-0.16 -0.032,0 -0.048,0.048 -0.048,0.128 0,0.032 -0.016,0.08 0,0.128 0,0.048 0.016,0.096 0.016,0.144 0,0.16 -0.064,0.304 -0.16,0.304 -0.032,0 -0.064,-0.032 -0.064,-0.112 0,-0.032 0.016,-0.064 0.016,-0.112 0,-0.032 0.016,-0.064 0.016,-0.096 0,-0.256 -0.16,-0.48 -0.336,-0.512 -0.016,0 -0.032,-0.016 -0.048,-0.016 -0.08,0 -0.096,0.064 -0.096,0.208 0,0.224 -0.192,0.608 -0.288,0.608 -0.016,0 -0.032,-0.016 -0.032,-0.032 -0.016,-0.064 -0.048,-0.192 -0.064,-0.288 -0.016,-0.128 -0.08,-0.176 -0.224,-0.192 -0.016,0 -0.032,-0.016 -0.048,-0.016 -0.144,0 -0.32,0.064 -0.32,0.16 0,0.032 0.016,0.08 0.064,0.144 0.064,0.08 0.112,0.208 0.112,0.272 0,0.064 0,0.096 -0.032,0.096 -0.048,0 -0.32,-0.176 -0.368,-0.176 -0.08,0 -0.304,0.288 -0.304,0.32 0,0.032 0.064,0.032 0.176,0.032 0.112,0 0.16,0.032 0.16,0.064 0,0.048 -0.064,0.112 -0.224,0.16 -0.192,0.064 -0.304,0.144 -0.304,0.24 0,0.08 0.144,0.192 0.144,0.24 0,0.016 -0.032,0.032 -0.08,0.048 -0.064,0.016 -0.096,0.096 -0.096,0.144 0,0.16 -0.368,0.24 -0.368,0.384 0,0.048 -0.08,0.176 -0.192,0.288 -0.144,0.144 -0.224,0.416 -0.224,0.576 0,0.096 0.032,0.16 0.096,0.16 0.08,0 0.112,0.048 0.112,0.112 0,0.048 -0.032,0.112 -0.096,0.128 -0.032,0.016 -0.048,0.016 -0.048,0.032 0,0.064 0.16,0.176 0.24,0.176 h 0.048 c 0.032,0 0.064,0.032 0.064,0.128 0,0.016 -0.016,0.048 -0.016,0.08 v 0.112 c 0,0.096 0.032,0.128 0.144,0.128 0.032,0 0.048,-0.016 0.08,-0.016 h 0.048 c 0.08,0 0.144,0.016 0.144,0.032 -0.016,0.016 -0.016,0.032 -0.016,0.048 0,0.08 0.144,0.192 0.272,0.192 0.064,0 0.16,-0.064 0.192,-0.112 0.032,-0.064 0.144,-0.096 0.24,-0.112 0.144,-0.016 0.208,-0.144 0.208,-0.272 0,-0.208 -0.288,-0.432 -0.48,-0.432 -0.064,0 -0.096,0.016 -0.096,0.064 0,0.08 0.128,0.128 0.128,0.192 0,0.08 -0.096,0.16 -0.208,0.16 h -0.016 c -0.24,0 -0.496,-0.384 -0.528,-0.784 0,-0.064 -0.016,-0.128 -0.016,-0.176 0,-0.176 0.048,-0.256 0.24,-0.448 0.144,-0.144 0.224,-0.208 0.272,-0.208 0.016,0 0.016,0.016 0.032,0.048 0.08,0.176 0.672,0.704 0.832,0.736 0.144,0.032 0.88,0.096 0.88,0.24 0,0.064 -0.128,0.192 -0.128,0.224 0,0.016 0,0.016 0.016,0.016 0.048,0 0.08,0.048 0.08,0.112 0,0.048 -0.336,0.608 -0.368,0.624 -0.032,0.016 -0.192,0.368 -0.368,0.704 -0.224,0.016 -0.464,0.032 -0.704,0.032 -0.224,0.016 -0.448,-0.096 -0.544,-0.096 h -0.128 c -0.224,0 -0.448,-0.064 -0.544,-0.16 -0.08,-0.08 -0.176,-0.144 -0.208,-0.144 -0.032,0 -0.144,-0.096 -0.224,-0.224 -0.128,-0.192 -0.176,-0.384 -0.24,-1.168 -0.032,-0.512 -0.112,-0.944 -0.144,-0.976 -0.032,-0.016 -0.032,-0.112 -0.032,-0.208 0,-0.032 -0.016,-0.352 -0.016,-0.832 0.096,0 0.144,0 0.16,0 0.288,0.464 0.736,1.04 0.784,1.04 0.064,0 0.096,-0.048 0.096,-0.112 0,-0.08 -0.032,-0.176 -0.112,-0.24 -0.128,-0.096 -0.192,-0.32 -0.192,-0.528 0,-0.128 0.016,-0.256 0.08,-0.352 0.064,-0.08 0.112,-0.256 0.112,-0.368 0,-0.112 0.032,-0.24 0.08,-0.256 0.048,-0.016 0.064,-0.08 0.064,-0.144 0,-0.096 -0.176,-0.192 -0.32,-0.192 -0.176,0 -0.224,0.224 -0.224,0.368 0,0.064 0.016,0.112 0.048,0.112 0.064,0 0.096,-0.144 0.128,-0.208 v 0.096 c 0,0.112 -0.272,0.576 -0.384,0.576 -0.016,0 -0.032,-0.032 -0.032,-0.096 0,-0.112 -0.048,-0.176 -0.144,-0.208 -0.08,-0.016 -0.112,-0.048 -0.112,-0.128 0,0 -0.016,-0.032 -0.048,-0.048 0,-0.656 -0.016,-1.44 -0.032,-2.192 0.224,-0.128 0.464,-0.224 0.72,-0.224 h 0.48 l -0.048,0.192 c -0.032,0.112 -0.08,0.208 -0.128,0.24 -0.032,0.016 -0.032,0.032 -0.032,0.048 0,0.016 0.016,0 0.048,0 0.048,0 0.08,0.096 0.08,0.192 0,0.384 0.576,0.72 1.088,0.72 0.576,0 1.008,-0.48 1.008,-0.928 0,-0.304 -0.288,-0.8 -0.464,-0.928 -0.016,0 -0.016,-0.016 -0.016,-0.016 0,-0.016 0.032,-0.032 0.112,-0.032 0.256,0 0.272,-0.112 0.592,-0.112 0.192,0 0.416,0.032 0.496,0.08 0.064,0.032 0.112,0.064 0.128,0.064 0.176,0.032 0.928,0.416 0.928,0.608 0,0.064 -0.112,0.064 -0.368,0.08 -0.32,0.016 -0.368,0.032 -0.368,0.176 v 0.064 c 0,0.176 0.096,0.56 0.096,0.736 0,0.096 -0.032,0.128 -0.144,0.16 -0.08,0.032 -0.128,0.048 -0.128,0.064 0,0.016 0.016,0.032 0.064,0.048 h 0.08 c 0.16,0 0.416,-0.128 0.576,-0.304 0.064,-0.064 0.128,-0.256 0.144,-0.4 0.016,-0.208 0.064,-0.32 0.112,-0.32 0.048,0 0.096,0.112 0.112,0.32 0.032,0.352 0.256,0.688 0.384,0.688 0.048,0 0.096,-0.048 0.096,-0.192 0,-0.096 0.016,-0.192 0.064,-0.192 0.112,0 0.208,0.224 0.208,0.416 0,0.032 -0.016,0.064 -0.016,0.096 -0.064,0.336 -0.384,0.976 -0.528,1.088 -0.16,0.112 -0.336,0.704 -0.336,1.008 0,0.224 0.112,0.16 0.112,0.416 0,0.16 -0.064,0.24 -0.224,0.336 -0.112,0.064 -0.32,0.208 -0.448,0.288 -0.112,0.08 -0.176,0.128 -0.176,0.144 0,0.016 0.048,0.016 0.112,0.016 0.096,0 0.304,-0.096 0.448,-0.208 0.192,-0.16 0.336,-0.224 0.528,-0.224 0.16,0 0.24,0.032 0.24,0.08 0,0.048 -0.112,0.144 -0.32,0.24 -0.288,0.144 -0.88,0.784 -0.88,0.96 0,0.064 -0.048,0.144 -0.112,0.192 -0.064,0.048 -0.208,0.448 -0.192,0.736 z m -3.216,-10.432 c 0.4,-0.016 0.88,-0.032 1.232,-0.032 0,0.128 0,0.224 0,0.24 -0.016,0.08 -0.096,0.128 -0.16,0.128 -0.032,0 -0.064,-0.032 -0.064,-0.08 0,-0.048 -0.08,-0.064 -0.176,-0.064 -0.096,0 -0.192,0.016 -0.192,0.064 0,0.032 -0.032,0.08 -0.096,0.08 -0.096,0 -0.256,0.208 -0.256,0.32 0,0 0,0.016 0.016,0.016 0.048,0 0.256,-0.112 0.336,-0.112 0.048,0 0.064,0.016 0.064,0.064 0,0.048 -0.016,0.112 -0.064,0.192 -0.064,0.112 -0.128,0.352 -0.16,0.544 -0.032,0.256 -0.08,0.336 -0.176,0.336 -0.064,0 -0.224,0.08 -0.336,0.176 -0.144,0.128 -0.16,0.16 -0.352,0.128 l -0.56,-0.064 c 0,-0.4 0,-0.64 0,-0.64 -0.016,-0.352 -0.048,-0.608 -0.048,-0.8 0,-0.4 0.096,-0.432 0.304,-0.448 0,-0.016 0.16,-0.016 0.384,-0.032 -0.048,0.16 -0.08,0.48 -0.08,0.592 0,0.096 0.016,0.16 0.048,0.16 0.064,0 0.272,-0.368 0.336,-0.656 0,-0.032 0,-0.08 0,-0.112 z m -2.784,1.664 -0.16,-0.032 c -0.176,0 -0.608,-0.432 -0.672,-0.672 -0.032,-0.112 -0.064,-0.192 -0.096,-0.192 -0.016,0 -0.032,-0.064 -0.032,-0.144 v -0.112 c 0.016,-0.16 0.064,-0.24 0.128,-0.24 0.096,0 0.304,0.272 0.432,0.272 0.08,0 0.272,0.56 0.4,1.12 z m 0.144,5.376 c -0.016,0.48 -0.016,0.816 -0.016,0.864 -0.032,0.96 -0.032,1.04 -0.112,1.728 -0.08,0.656 -0.24,0.912 -0.672,1.056 -0.304,0.096 -0.96,0.272 -1.04,0.272 -0.032,0 -0.048,-0.048 -0.048,-0.112 0,-0.128 0.064,-0.336 0.144,-0.416 0.064,-0.048 0.128,-0.096 0.144,-0.096 v 0.016 c 0,0.016 0.016,0.016 0.016,0.016 0.08,0 0.576,-0.608 0.608,-0.768 0.032,-0.112 0.096,-0.256 0.144,-0.336 0.048,-0.08 0.096,-0.192 0.096,-0.256 0,-0.064 0.048,-0.128 0.08,-0.144 0.096,-0.032 0.16,-0.416 0.16,-0.784 0,-0.16 -0.032,-0.4 -0.032,-0.56 0,-0.336 0.096,-0.48 0.384,-0.48 0,0 0.048,0 0.144,0 z"
         style="font-family:'EB Garamond Initials';-inkscape-font-specification:'EB Garamond Initials'"
         id="path25138" />
      <path
         d="m 293.83482,267.08789 h 1.4375 v 8.75 h -1.4375 z m 0,-3.40625 h 1.4375 v 1.82031 h -1.4375 z"
         style="font-family:'EB Garamond Initials';-inkscape-font-specification:'EB Garamond Initials'"
         id="path25140" />
      <path
         d="m 304.57701,267.42383 v 1.34375 q -0.60937,-0.33594 -1.22656,-0.5 -0.60938,-0.17188 -1.23438,-0.17188 -1.39843,0 -2.17187,0.89063 -0.77344,0.88281 -0.77344,2.48437 0,1.60157 0.77344,2.49219 0.77344,0.88281 2.17187,0.88281 0.625,0 1.23438,-0.16406 0.61719,-0.17187 1.22656,-0.50781 v 1.32812 q -0.60156,0.28125 -1.25,0.42188 -0.64062,0.14062 -1.36719,0.14062 -1.97656,0 -3.14062,-1.24218 -1.16406,-1.24219 -1.16406,-3.35157 0,-2.14062 1.17187,-3.36718 1.17969,-1.22657 3.22656,-1.22657 0.66407,0 1.29688,0.14063 0.63281,0.13281 1.22656,0.40625 z"
         style="font-family:'EB Garamond Initials';-inkscape-font-specification:'EB Garamond Initials'"
         id="path25142" />
      <path
         d="m 308.49889,264.60352 v 2.48437 h 2.96093 v 1.11719 h -2.96093 v 4.75 q 0,1.07031 0.28906,1.375 0.29687,0.30469 1.19531,0.30469 h 1.47656 v 1.20312 h -1.47656 q -1.66406,0 -2.29687,-0.61719 -0.63282,-0.625 -0.63282,-2.26562 v -4.75 h -1.05468 v -1.11719 h 1.05468 v -2.48437 z"
         style="font-family:'EB Garamond Initials';-inkscape-font-specification:'EB Garamond Initials'"
         id="path25144" />
      <path
         d="m 313.35045,267.08789 h 1.4375 v 8.75 h -1.4375 z m 0,-3.40625 h 1.4375 v 1.82031 h -1.4375 z"
         style="font-family:'EB Garamond Initials';-inkscape-font-specification:'EB Garamond Initials'"
         id="path25146" />
      <path
         d="m 320.35195,269.21389 c -1.968,0 -3.504,1.856 -3.504,3.632 0,1.872 1.392,3.216 3.184,3.216 2.4,0 3.616,-1.76 3.616,-3.632 0,-1.728 -1.44,-3.216 -3.296,-3.216 z m -0.272,0.496 c 1.36,0 2.256,1.584 2.256,3.104 0,0.624 -0.064,1.392 -0.32,1.888 -0.32,0.624 -0.928,0.88 -1.648,0.88 -1.28,0 -2.208,-1.52 -2.208,-3.104 0,-0.768 0.08,-1.584 0.512,-2.128 0.384,-0.496 0.832,-0.64 1.408,-0.64 z"
         style="font-family:'EB Garamond Initials';-inkscape-font-specification:'EB Garamond Initials'"
         id="path25148" />
      <path
         d="m 332.98918,270.55664 v 5.28125 h -1.4375 v -5.23437 q 0,-1.24219 -0.48437,-1.85938 -0.48438,-0.61719 -1.45313,-0.61719 -1.16406,0 -1.83594,0.74219 -0.67187,0.74219 -0.67187,2.02344 v 4.94531 h -1.44531 v -8.75 h 1.44531 v 1.35938 q 0.51562,-0.78907 1.21094,-1.17969 0.70312,-0.39063 1.61718,-0.39063 1.50782,0 2.28125,0.9375 0.77344,0.92969 0.77344,2.74219 z"
         style="font-family:'EB Garamond Initials';-inkscape-font-specification:'EB Garamond Initials'"
         id="path25150" />
      <path
         d="m 339.83293,271.43945 q -1.74219,0 -2.41406,0.39844 -0.67188,0.39844 -0.67188,1.35938 0,0.76562 0.5,1.21875 0.50782,0.44531 1.375,0.44531 1.19532,0 1.91407,-0.84375 0.72656,-0.85156 0.72656,-2.25781 v -0.32032 z m 2.86719,-0.59375 v 4.99219 h -1.4375 v -1.32812 q -0.49219,0.79687 -1.22656,1.17968 -0.73438,0.375 -1.79688,0.375 -1.34375,0 -2.14062,-0.75 -0.78907,-0.75781 -0.78907,-2.02343 0,-1.47657 0.98438,-2.22657 0.99219,-0.75 2.95312,-0.75 h 2.01563 v -0.14062 q 0,-0.99219 -0.65625,-1.53125 -0.64844,-0.54688 -1.82813,-0.54688 -0.75,0 -1.46093,0.17969 -0.71094,0.17969 -1.36719,0.53906 v -1.32812 q 0.78906,-0.30469 1.53125,-0.45313 0.74219,-0.15625 1.44531,-0.15625 1.89844,0 2.83594,0.98438 0.9375,0.98437 0.9375,2.98437 z"
         style="font-family:'EB Garamond Initials';-inkscape-font-specification:'EB Garamond Initials'"
         id="path25152" />
      <path
         d="m 350.73137,268.43164 q -0.24219,-0.14062 -0.53125,-0.20312 -0.28125,-0.0703 -0.625,-0.0703 -1.21875,0 -1.875,0.79688 -0.64844,0.78906 -0.64844,2.27344 v 4.60937 h -1.44531 v -8.75 h 1.44531 v 1.35938 q 0.45313,-0.79688 1.17969,-1.17969 0.72656,-0.39063 1.76562,-0.39063 0.14844,0 0.32813,0.0234 0.17969,0.0156 0.39844,0.0547 z"
         style="font-family:'EB Garamond Initials';-inkscape-font-specification:'EB Garamond Initials'"
         id="path25154" />
      <path
         d="m 355.87981,276.65039 q -0.60938,1.5625 -1.1875,2.03906 -0.57813,0.47657 -1.54688,0.47657 h -1.14844 v -1.20313 h 0.84375 q 0.59375,0 0.92188,-0.28125 0.32812,-0.28125 0.72656,-1.32812 l 0.25781,-0.65625 -3.53906,-8.60938 h 1.52344 l 2.73437,6.84375 2.73438,-6.84375 h 1.52344 z"
         style="font-family:'EB Garamond Initials';-inkscape-font-specification:'EB Garamond Initials'"
         id="path25156" />
      <path
         d="m 371.22356,263.68164 v 1.19531 h -1.375 q -0.77344,0 -1.07813,0.3125 -0.29687,0.3125 -0.29687,1.125 v 0.77344 h 2.36718 v 1.11719 h -2.36718 v 7.63281 h -1.44532 v -7.63281 h -1.375 v -1.11719 h 1.375 v -0.60937 q 0,-1.46094 0.67969,-2.125 0.67969,-0.67188 2.15625,-0.67188 z"
         style="font-family:'EB Garamond Initials';-inkscape-font-specification:'EB Garamond Initials'"
         id="path25158" />
      <path
         d="m 377.49699,268.43164 q -0.24218,-0.14062 -0.53125,-0.20312 -0.28125,-0.0703 -0.625,-0.0703 -1.21875,0 -1.875,0.79688 -0.64843,0.78906 -0.64843,2.27344 v 4.60937 h -1.44532 v -8.75 h 1.44532 v 1.35938 q 0.45312,-0.79688 1.17968,-1.17969 0.72657,-0.39063 1.76563,-0.39063 0.14844,0 0.32812,0.0234 0.17969,0.0156 0.39844,0.0547 z"
         style="font-family:'EB Garamond Initials';-inkscape-font-specification:'EB Garamond Initials'"
         id="path25160" />
      <path
         d="m 381.56099,269.21389 c -1.968,0 -3.504,1.856 -3.504,3.632 0,1.872 1.392,3.216 3.184,3.216 2.4,0 3.616,-1.76 3.616,-3.632 0,-1.728 -1.44,-3.216 -3.296,-3.216 z m -0.272,0.496 c 1.36,0 2.256,1.584 2.256,3.104 0,0.624 -0.064,1.392 -0.32,1.888 -0.32,0.624 -0.928,0.88 -1.648,0.88 -1.28,0 -2.208,-1.52 -2.208,-3.104 0,-0.768 0.08,-1.584 0.512,-2.128 0.384,-0.496 0.832,-0.64 1.408,-0.64 z"
         style="font-family:'EB Garamond Initials';-inkscape-font-specification:'EB Garamond Initials'"
         id="path25162" />
      <path
         d="m 393.73729,268.76758 q 0.53906,-0.96875 1.28906,-1.42969 0.75,-0.46094 1.76563,-0.46094 1.36718,0 2.10937,0.96094 0.74219,0.95313 0.74219,2.71875 v 5.28125 h -1.44531 v -5.23437 q 0,-1.25782 -0.44532,-1.86719 -0.44531,-0.60938 -1.35937,-0.60938 -1.11719,0 -1.76563,0.74219 -0.64843,0.74219 -0.64843,2.02344 v 4.94531 h -1.44532 v -5.23437 q 0,-1.26563 -0.44531,-1.86719 -0.44531,-0.60938 -1.375,-0.60938 -1.10156,0 -1.75,0.75 -0.64844,0.74219 -0.64844,2.01563 v 4.94531 h -1.44531 v -8.75 h 1.44531 v 1.35938 q 0.49219,-0.80469 1.17969,-1.1875 0.6875,-0.38282 1.63281,-0.38282 0.95313,0 1.61719,0.48438 0.67188,0.48437 0.99219,1.40625 z"
         style="font-family:'EB Garamond Initials';-inkscape-font-specification:'EB Garamond Initials'"
         id="path25164" />
      <path
         d="m 413.35448,268.41602 v -4.73438 h 1.4375 v 12.15625 h -1.4375 v -1.3125 q -0.45313,0.78125 -1.14844,1.16406 -0.6875,0.375 -1.65625,0.375 -1.58594,0 -2.58594,-1.26562 -0.99219,-1.26563 -0.99219,-3.32813 0,-2.0625 0.99219,-3.32812 1,-1.26563 2.58594,-1.26563 0.96875,0 1.65625,0.38282 0.69531,0.375 1.14844,1.15625 z m -4.89844,3.05468 q 0,1.58594 0.64844,2.49219 0.65625,0.89844 1.79687,0.89844 1.14063,0 1.79688,-0.89844 0.65625,-0.90625 0.65625,-2.49219 0,-1.58593 -0.65625,-2.48437 -0.65625,-0.90625 -1.79688,-0.90625 -1.14062,0 -1.79687,0.90625 -0.64844,0.89844 -0.64844,2.48437 z"
         style="font-family:'EB Garamond Initials';-inkscape-font-specification:'EB Garamond Initials'"
         id="path25166" />
      <path
         d="m 421.72948,271.43945 q -1.74219,0 -2.41407,0.39844 -0.67187,0.39844 -0.67187,1.35938 0,0.76562 0.5,1.21875 0.50781,0.44531 1.375,0.44531 1.19531,0 1.91406,-0.84375 0.72656,-0.85156 0.72656,-2.25781 v -0.32032 z m 2.86718,-0.59375 v 4.99219 h -1.4375 v -1.32812 q -0.49218,0.79687 -1.22656,1.17968 -0.73437,0.375 -1.79687,0.375 -1.34375,0 -2.14063,-0.75 -0.78906,-0.75781 -0.78906,-2.02343 0,-1.47657 0.98437,-2.22657 0.99219,-0.75 2.95313,-0.75 h 2.01562 v -0.14062 q 0,-0.99219 -0.65625,-1.53125 -0.64843,-0.54688 -1.82812,-0.54688 -0.75,0 -1.46094,0.17969 -0.71094,0.17969 -1.36719,0.53906 v -1.32812 q 0.78907,-0.30469 1.53125,-0.45313 0.74219,-0.15625 1.44532,-0.15625 1.89843,0 2.83593,0.98438 0.9375,0.98437 0.9375,2.98437 z"
         style="font-family:'EB Garamond Initials';-inkscape-font-specification:'EB Garamond Initials'"
         id="path25168" />
      <path
         d="m 439.91698,270.55664 v 5.28125 h -1.4375 v -5.23437 q 0,-1.24219 -0.48438,-1.85938 -0.48437,-0.61719 -1.45312,-0.61719 -1.16407,0 -1.83594,0.74219 -0.67188,0.74219 -0.67188,2.02344 v 4.94531 h -1.44531 v -12.15625 h 1.44531 v 4.76563 q 0.51563,-0.78907 1.21094,-1.17969 0.70313,-0.39063 1.61719,-0.39063 1.50781,0 2.28125,0.9375 0.77344,0.92969 0.77344,2.74219 z"
         style="font-family:'EB Garamond Initials';-inkscape-font-specification:'EB Garamond Initials'"
         id="path25170" />
      <path
         d="m 445.34035,269.21389 c -1.968,0 -3.504,1.856 -3.504,3.632 0,1.872 1.392,3.216 3.184,3.216 2.4,0 3.616,-1.76 3.616,-3.632 0,-1.728 -1.44,-3.216 -3.296,-3.216 z m -0.272,0.496 c 1.36,0 2.256,1.584 2.256,3.104 0,0.624 -0.064,1.392 -0.32,1.888 -0.32,0.624 -0.928,0.88 -1.648,0.88 -1.28,0 -2.208,-1.52 -2.208,-3.104 0,-0.768 0.08,-1.584 0.512,-2.128 0.384,-0.496 0.832,-0.64 1.408,-0.64 z"
         style="font-family:'EB Garamond Initials';-inkscape-font-specification:'EB Garamond Initials'"
         id="path25172" />
      <path
         d="m 453.26033,269.21389 c -1.968,0 -3.504,1.856 -3.504,3.632 0,1.872 1.392,3.216 3.184,3.216 2.4,0 3.616,-1.76 3.616,-3.632 0,-1.728 -1.44,-3.216 -3.296,-3.216 z m -0.272,0.496 c 1.36,0 2.256,1.584 2.256,3.104 0,0.624 -0.064,1.392 -0.32,1.888 -0.32,0.624 -0.928,0.88 -1.648,0.88 -1.28,0 -2.208,-1.52 -2.208,-3.104 0,-0.768 0.08,-1.584 0.512,-2.128 0.384,-0.496 0.832,-0.64 1.408,-0.64 z"
         style="font-family:'EB Garamond Initials';-inkscape-font-specification:'EB Garamond Initials'"
         id="path25174" />
      <path
         d="m 464.38194,268.41602 v -4.73438 h 1.4375 v 12.15625 h -1.4375 v -1.3125 q -0.45312,0.78125 -1.14843,1.16406 -0.6875,0.375 -1.65625,0.375 -1.58594,0 -2.58594,-1.26562 -0.99219,-1.26563 -0.99219,-3.32813 0,-2.0625 0.99219,-3.32812 1,-1.26563 2.58594,-1.26563 0.96875,0 1.65625,0.38282 0.69531,0.375 1.14843,1.15625 z m -4.89843,3.05468 q 0,1.58594 0.64843,2.49219 0.65625,0.89844 1.79688,0.89844 1.14062,0 1.79687,-0.89844 0.65625,-0.90625 0.65625,-2.49219 0,-1.58593 -0.65625,-2.48437 -0.65625,-0.90625 -1.79687,-0.90625 -1.14063,0 -1.79688,0.90625 -0.64843,0.89844 -0.64843,2.48437 z"
         style="font-family:'EB Garamond Initials';-inkscape-font-specification:'EB Garamond Initials'"
         id="path25176" />
    </g>
    <path
       style="fill:none;stroke:#000000;stroke-width:0.765;stroke-linecap:butt;stroke-linejoin:miter;stroke-miterlimit:4;stroke-dasharray:none;stroke-opacity:1;marker-mid:"
       d="m 173.15464,61.959878 c -2.35068,0.185811 5.84381,-2.063577 6.93064,4.076584 1.08682,6.140161 -4.93355,20.669108 -3.1494,24.630658 1.78415,3.961551 11.37246,-2.64413 8.42866,-7.243218 -2.94379,-4.599087 -18.41949,-7.191428 -27.13912,-14.382046 -8.71962,-7.190617 -10.6825,-18.979233 -3.03712,-15.756 7.64539,3.223233 24.89819,21.45785 34.1842,24.500808 9.286,3.042959 10.60509,-9.105578 4.81673,-13.869571 -5.78836,-4.763993 -18.68392,-2.143026 -21.03459,-1.957215 z"
       id="path24629"
       inkscape:path-effect="#path-effect24631"
       inkscape:original-d="m 162.60929,64.395127 c 8.19476,-2.249125 16.38925,-4.498512 24.58348,-6.748166 -6.02035,14.529794 -12.04072,29.058742 -18.06147,43.587689 9.58895,-6.605666 19.17725,-13.211351 28.76548,-19.817438 -15.47607,-2.592181 -30.95177,-5.184524 -46.42806,-7.777184 -1.9627,-11.788825 -3.92559,-23.577441 -5.88878,-35.366557 17.25376,18.235609 34.50656,36.470227 51.75944,54.704942 1.31941,-12.148759 2.6385,-24.297296 3.95736,-36.446343 -12.89581,2.621335 -25.79137,5.242303 -38.68745,7.863057 z" />
  </g>
</svg>
